<svg xmlns="http://www.w3.org/2000/svg" viewBox="0 0 351.413 378.907">
  <path d="M.373 340.095c-.113-2.879-.238-5.818-.373-8.81 2.04.091 4.07.17 6.088.238a184.428 184.428 0 0012.28 0c2.085-.068 4.355-.147 6.805-.238a10.34 10.34 0 00-.205 2.04c0 .682.069 1.36.205 2.042-1.225-.135-2.7-.26-4.424-.375a193.987 193.987 0 00-5.273-.272 497.033 497.033 0 00-5.17-.17 163.5 163.5 0 00-4.115-.069 331.26 331.26 0 00-.103 4.56 263.76 263.76 0 00-.033 4.354c0 1.588.01 3.052.033 4.388.023 1.337.034 2.733.034 4.184 2.994 0 5.953-.044 8.878-.136 2.925-.091 5.817-.272 8.675-.543a7.95 7.95 0 00-.272 2.04c0 .681.092 1.36.272 2.04a55.043 55.043 0 00-3.844-.306 235.99 235.99 0 00-4.456-.169c-1.542-.045-3.107-.07-4.694-.07H6.122v5.785c0 2.99.057 5.942.171 8.844.11 2.902.238 5.76.374 8.573a37.604 37.604 0 00-3.335-.137c-1.179 0-2.29.044-3.332.137.135-2.813.26-5.671.373-8.573.113-2.902.171-5.853.171-8.844v-11.704c0-2.992-.058-5.928-.171-8.81m32.248 4.356c1.248-3.018 2.995-5.57 5.24-7.654 2.246-2.088 4.932-3.675 8.06-4.764 3.131-1.087 6.556-1.632 10.275-1.632 3.764 0 7.21.545 10.34 1.632 3.132 1.09 5.819 2.676 8.065 4.764 2.244 2.084 3.99 4.636 5.236 7.654 1.247 3.015 1.872 6.453 1.872 10.305 0 3.857-.625 7.294-1.872 10.309-1.246 3.015-2.992 5.567-5.236 7.653-2.246 2.087-4.933 3.64-8.064 4.66-3.13 1.022-6.577 1.53-10.341 1.53-3.719 0-7.144-.508-10.275-1.53-3.128-1.02-5.814-2.573-8.06-4.66-2.245-2.086-3.992-4.638-5.24-7.653-1.246-3.015-1.872-6.452-1.872-10.31 0-3.851.626-7.289 1.872-10.304m40.993.545c-.955-2.747-2.28-5.014-3.982-6.806a15.88 15.88 0 00-5.987-3.98c-2.289-.861-4.772-1.293-7.45-1.293-2.631 0-5.092.432-7.382 1.293a15.873 15.873 0 00-5.986 3.98c-1.7 1.792-3.027 4.059-3.982 6.806-.95 2.742-1.426 5.996-1.426 9.76 0 3.765.476 7.021 1.426 9.762.955 2.747 2.282 5.014 3.982 6.804a15.814 15.814 0 005.986 3.98c2.29.865 4.751 1.295 7.383 1.295 2.677 0 5.16-.43 7.45-1.295a15.82 15.82 0 005.986-3.98c1.703-1.79 3.027-4.057 3.982-6.804.951-2.741 1.428-5.997 1.428-9.762 0-3.764-.477-7.018-1.428-9.76m15.68-.545c1.246-3.018 2.994-5.57 5.24-7.654 2.245-2.088 4.932-3.675 8.062-4.764 3.128-1.087 6.553-1.632 10.272-1.632 3.764 0 7.212.545 10.34 1.632 3.132 1.09 5.819 2.676 8.064 4.764 2.245 2.084 3.99 4.636 5.24 7.654 1.245 3.015 1.87 6.453 1.87 10.305 0 3.857-.625 7.294-1.87 10.309-1.25 3.015-2.995 5.567-5.24 7.653-2.245 2.087-4.932 3.64-8.063 4.66-3.129 1.022-6.577 1.53-10.341 1.53-3.72 0-7.144-.508-10.272-1.53-3.13-1.02-5.817-2.573-8.063-4.66-2.245-2.086-3.993-4.638-5.24-7.653-1.246-3.015-1.869-6.452-1.869-10.31 0-3.851.623-7.289 1.87-10.304m40.991.545c-.952-2.747-2.278-5.014-3.978-6.806a15.881 15.881 0 00-5.99-3.98c-2.289-.861-4.773-1.293-7.45-1.293-2.631 0-5.091.432-7.382 1.293a15.86 15.86 0 00-5.985 3.98c-1.701 1.792-3.028 4.059-3.98 6.806-.953 2.742-1.43 5.996-1.43 9.76 0 3.765.477 7.021 1.43 9.762.952 2.747 2.279 5.014 3.98 6.804a15.802 15.802 0 005.985 3.98c2.291.865 4.751 1.295 7.383 1.295 2.676 0 5.16-.43 7.45-1.295a15.823 15.823 0 005.989-3.98c1.7-1.79 3.026-4.057 3.978-6.804.954-2.741 1.43-5.997 1.43-9.762 0-3.764-.476-7.018-1.43-9.76m14.73-4.9c-.114-2.879-.238-5.818-.374-8.81 1.723.091 3.435.17 5.135.238 1.701.066 3.412.102 5.137.102 1.723 0 3.436-.058 5.138-.17 1.7-.113 3.412-.17 5.137-.17 3.99 0 7.403.52 10.239 1.564 2.834 1.044 5.157 2.527 6.973 4.456 1.813 1.928 3.14 4.286 3.979 7.075.838 2.79 1.258 5.932 1.258 9.424 0 4.538-.782 8.358-2.346 11.463-1.564 3.109-3.562 5.613-5.987 7.52-2.428 1.904-5.101 3.253-8.028 4.048-2.925.791-5.725 1.19-8.403 1.19-1.542 0-3.06-.024-4.558-.069a145.697 145.697 0 00-4.558-.068H149.2c-1.496 0-3.018.044-4.558.137.136-2.813.26-5.671.374-8.573.113-2.902.168-5.853.168-8.844v-11.704c0-2.992-.055-5.928-.168-8.81m6.157 34.937c.952.226 2.245.398 3.877.509 1.634.115 3.31.17 5.035.17 2.495 0 4.988-.293 7.484-.885 2.495-.59 4.73-1.7 6.7-3.334 1.975-1.631 3.584-3.866 4.83-6.7 1.249-2.834 1.873-6.498 1.873-10.987 0-3.947-.487-7.19-1.463-9.73-.975-2.54-2.313-4.546-4.015-6.02-1.7-1.474-3.73-2.494-6.089-3.062-2.357-.566-4.943-.85-7.755-.85-2.041 0-3.945.067-5.716.203-1.769.136-3.356.296-4.761.476a210.151 210.151 0 00-.307 6.838c-.069 2.381-.102 4.797-.102 7.245v11.704c0 4.897.136 9.705.409 14.423m77.081-34.014c-.11-2.81-.23-5.674-.365-8.596.575.09 1.128.167 1.659.231a12.802 12.802 0 003.188 0 50.214 50.214 0 001.658-.23c-.133 2.92-.256 5.786-.364 8.595-.112 2.811-.166 5.675-.166 8.595v11.416c0 2.921.054 5.797.166 8.63.108 2.831.231 5.62.364 8.362a37.848 37.848 0 00-3.252-.132c-1.152 0-2.234.044-3.253.132.135-2.743.255-5.53.365-8.363.112-2.832.167-5.708.167-8.629v-5.972c-2.39-.044-4.704-.079-6.937-.1a647.085 647.085 0 00-6.938-.035c-2.389 0-4.7.011-6.934.035-2.235.021-4.546.056-6.936.1v5.972c0 2.921.053 5.797.165 8.63.11 2.831.233 5.62.367 8.362a37.911 37.911 0 00-3.255-.132c-1.15 0-2.235.044-3.252.132.133-2.743.256-5.53.367-8.363.109-2.832.164-5.708.164-8.629v-11.416c0-2.92-.055-5.784-.164-8.595-.111-2.81-.234-5.674-.367-8.596.575.09 1.13.167 1.661.231a12.77 12.77 0 003.184 0 48.9 48.9 0 001.662-.23c-.134 2.92-.256 5.786-.367 8.595-.112 2.811-.165 5.675-.165 8.595v2.321c2.39.048 4.701.092 6.936.134 2.234.045 4.545.066 6.934.066 2.391 0 4.703-.021 6.938-.066 2.233-.042 4.548-.086 6.937-.134v-2.321c0-2.92-.055-5.784-.167-8.595m17.126 0c-.112-2.81-.232-5.674-.364-8.596.573.09 1.126.167 1.657.231a12.797 12.797 0 003.187 0c.53-.064 1.084-.141 1.66-.23-.134 2.92-.256 5.786-.368 8.595-.108 2.811-.164 5.675-.164 8.595v11.416c0 2.921.056 5.797.164 8.63.112 2.831.234 5.62.368 8.362a37.857 37.857 0 00-3.254-.132c-1.15 0-2.234.044-3.25.132.132-2.743.252-5.53.364-8.363.108-2.832.164-5.708.164-8.629v-11.416c0-2.92-.056-5.784-.164-8.595m17.124 0c-.111-2.81-.232-5.674-.364-8.596.574.09 1.128.167 1.66.231a12.707 12.707 0 003.185 0c.53-.064 1.083-.141 1.659-.23-.132 2.92-.255 5.786-.366 8.595-.11 2.811-.166 5.675-.166 8.595 0 5.576.022 10.41.066 14.504.044 4.092.088 7.753.135 10.983 3.14 0 6.15-.032 9.027-.097 2.876-.067 5.973-.323 9.292-.766-.223.797-.331 1.461-.331 1.993 0 .487.108 1.084.33 1.791a141.385 141.385 0 00-6.106-.132h-12.247c-1.969 0-4.014.044-6.138.132.132-2.743.253-5.53.364-8.363.11-2.832.166-5.708.166-8.629v-11.416c0-2.92-.056-5.784-.166-8.595m31.861 0c-.11-2.81-.233-5.674-.367-8.596.576.09 1.13.167 1.66.231a12.802 12.802 0 003.186 0 48.9 48.9 0 001.661-.23c-.133 2.92-.256 5.786-.367 8.595a221.14 221.14 0 00-.164 8.595c0 5.576.022 10.41.067 14.504.041 4.092.087 7.753.13 10.983 3.145 0 6.151-.032 9.029-.097 2.876-.067 5.974-.323 9.29-.766-.22.797-.33 1.461-.33 1.993 0 .487.11 1.084.33 1.791a141.2 141.2 0 00-6.106-.132h-12.246c-1.968 0-4.014.044-6.14.132.134-2.743.256-5.53.367-8.363.11-2.832.165-5.708.165-8.629v-11.416c0-2.92-.056-5.784-.165-8.595m33.32 30.797c.597.82 1.327 1.56 2.19 2.226.865.661 1.87 1.204 3.02 1.626 1.15.42 2.433.629 3.851.629 1.46 0 2.776-.255 3.948-.764 1.174-.507 2.167-1.194 2.987-2.056a8.972 8.972 0 001.892-3.055 10.53 10.53 0 00.665-3.75c0-2.034-.524-3.65-1.561-4.847-1.04-1.192-2.333-2.188-3.883-2.985a45.969 45.969 0 00-5.01-2.191 25.8 25.8 0 01-5.014-2.488 13.247 13.247 0 01-3.881-3.816c-1.04-1.55-1.561-3.63-1.561-6.242 0-1.857.332-3.547.996-5.076a11.035 11.035 0 012.888-3.95c1.261-1.104 2.776-1.967 4.546-2.588 1.77-.619 3.762-.928 5.974-.928 2.125 0 3.961.256 5.51.761a13.798 13.798 0 014.315 2.359c-.401.752-.732 1.549-.996 2.388-.267.84-.53 1.902-.797 3.185h-.796a17.3 17.3 0 00-.896-2.021 7.709 7.709 0 00-1.528-2.027 8.574 8.574 0 00-2.29-1.56c-.884-.42-1.946-.63-3.185-.63-1.241 0-2.379.198-3.419.597a8.156 8.156 0 00-2.72 1.693 7.42 7.42 0 00-1.793 2.621c-.423 1.02-.63 2.125-.63 3.32 0 2.079.52 3.715 1.56 4.911 1.037 1.194 2.331 2.201 3.88 3.02 1.55.82 3.222 1.55 5.014 2.192a28.072 28.072 0 015.01 2.356c1.55.93 2.843 2.123 3.883 3.583 1.039 1.46 1.562 3.409 1.562 5.842 0 2.034-.368 3.96-1.098 5.774a13.604 13.604 0 01-3.184 4.746c-1.394 1.351-3.098 2.39-5.11 3.12-2.018.73-4.307 1.095-6.872 1.095-2.743 0-4.968-.365-6.671-1.095-1.703-.73-3.13-1.56-4.281-2.49.398-1.016.674-1.935.832-2.755.152-.816.296-1.867.43-3.152h.796c.354.797.83 1.604 1.427 2.422" fill="#231f20"/>
  <path d="M60.476 142.076c12.438 0 22.519-10.081 22.519-22.52 0-12.436-10.081-22.519-22.519-22.519-12.437 0-22.519 10.083-22.519 22.519 0 12.439 10.082 22.52 22.519 22.52M290.939 142.076c12.437 0 22.518-10.081 22.518-22.52 0-12.436-10.081-22.519-22.518-22.519-12.436 0-22.519 10.083-22.519 22.519 0 12.439 10.083 22.52 22.519 22.52M97.82 71.679c12.437 0 22.519-10.082 22.519-22.52 0-12.438-10.082-22.519-22.52-22.519-12.437 0-22.518 10.081-22.518 22.519 0 12.438 10.081 22.52 22.519 22.52M253.596 71.679c12.436 0 22.517-10.082 22.517-22.52 0-12.438-10.081-22.519-22.517-22.519-12.437 0-22.52 10.081-22.52 22.519 0 12.438 10.083 22.52 22.52 22.52M175.707 45.033c12.437 0 22.518-10.081 22.518-22.518 0-12.438-10.081-22.519-22.518-22.519-12.438 0-22.519 10.081-22.519 22.519 0 12.437 10.081 22.518 22.519 22.518" fill="#76c92b"/>
  <path d="M145.18 275.242c6.89 1.56 13.972 2.589 21.205 3.071 4.228-3.332 8.483-6.638 12.792-9.866 36.671-27.48 76.227-49.015 118.826-64.14 2.528-4.87 4.742-9.918 6.685-15.1-58.688 17.536-111.35 46.501-159.508 86.035m44.997 2.617c18.919-1.98 36.662-7.76 52.476-16.574.762-.45 1.538-.872 2.304-1.314a138.364 138.364 0 0039.916-35.123c-33.481 13.755-64.842 31.373-94.696 53.01M311.96 160.937c-74.948 16.437-140.413 51.83-199.049 102.602a137.229 137.229 0 0016.122 6.975l2.054-1.82c31.537-27.908 66.856-50.161 104.761-68.382 23.864-11.47 48.532-20.484 73.857-27.434.93-3.917 1.668-7.905 2.255-11.941m-133.893 36.777c-44.757-20.038-90.43-32.866-138.613-36.633.477 3.257 1.041 6.483 1.744 9.659 39.323 5.386 77.304 16.002 113.62 31.993 9.74 4.29 15.569 1.193 23.249-5.019M45.566 186.127c1.47 4.229 3.136 8.364 4.994 12.392 25.637 7.192 51.331 14.336 76.349 23.321 9.944 3.57 15.42 1.31 22.47-5.75-33.419-14.634-67.572-24.58-103.813-29.963m25.844 44.778c10.184 3.37 20.58 6.235 30.29 10.638 9.72 4.404 15.39 2.084 21.755-7.268l-64.462-20.168a137.972 137.972 0 0012.417 16.798" fill="#14662f"/>
</svg>